<?xml version="1.0" encoding="UTF-8"?><svg id="Layer_2" xmlns="http://www.w3.org/2000/svg" viewBox="0 0 406.54 258.74"><g id="Layer_1-2"><path d="m394.19,1.52c-7.48-3.1-16.08-1.38-21.8,4.34l-149.12,149.12V55.47c0-8.09-4.88-15.38-12.35-18.48-7.47-3.09-16.08-1.38-21.8,4.34L5.86,224.6c-5.72,5.72-7.44,14.32-4.34,21.79,3.1,7.48,10.39,12.35,18.48,12.35h366.54c11.04,0,20-8.95,20-20V20c0-8.09-4.88-15.38-12.35-18.48Zm-7.65,235.22c0,1.11-.9,2-2,2H24.83c-1.79,0-2.68-2.15-1.42-3.41L199.85,58.89c1.26-1.26,3.42-.37,3.42,1.41v138.14c0,1.78,2.15,2.67,3.41,1.41L383.12,23.41c1.26-1.26,3.42-.36,3.42,1.42v211.91Z"/></g></svg>