<?xml version="1.0" encoding="UTF-8"?>
<svg id="Layer_1" xmlns="http://www.w3.org/2000/svg" viewBox="0 0 64 64">
  <defs>
    <style>
      .cls-1 {
        fill:#f6f6f6;
        stroke:#f6f6f6;
        stroke-linecap:round;
        stroke-linejoin:round;
        stroke-width:10px;
      }
    </style>
  </defs>
  <polygon class="cls-1" points="7.38 44.31 32 19.69 32 44.31 7.38 44.31"/>
  <polygon class="cls-1" points="31.59 44.31 56.21 19.69 56.21 44.31 31.59 44.31"/>
  <path d="m56.92,17.63c-.98-.4-2.1-.18-2.84.57l-19.46,19.45v-17.61c0-1.05-.64-2.01-1.62-2.41-.97-.4-2.1-.18-2.84.57L6.24,42.12c-.75.75-.97,1.87-.56,2.84.41.97,1.36,1.61,2.41,1.61h47.83c1.44,0,2.61-1.17,2.61-2.61v-23.91c0-1.05-.64-2.01-1.61-2.41Zm-25.62,5.84l-14.39,14.4c-.2.2-.45.29-.71.29s-.51-.1-.71-.29c-.39-.39-.39-1.02,0-1.41l14.39-14.4c.39-.39,1.02-.39,1.41,0s.39,1.02,0,1.41Zm24.03,0l-14.39,14.4c-.2.2-.45.29-.71.29s-.51-.1-.71-.29c-.39-.39-.39-1.02,0-1.41l14.39-14.4c.39-.39,1.02-.39,1.41,0s.39,1.02,0,1.41Z"/>
  <style>
    path {
      fill: #333;
    }
    @media (prefers-color-scheme: dark) {
      path {
        fill: hsl(221deg 100% 12%);
      }
    }
  </style>
</svg>