<?xml version="1.0" encoding="utf-8"?>
<!-- Generator: Adobe Illustrator 27.4.0, SVG Export Plug-In . SVG Version: 6.00 Build 0)  -->
<svg version="1.1" id="Layer_1" xmlns="http://www.w3.org/2000/svg" xmlns:xlink="http://www.w3.org/1999/xlink" x="0px" y="0px"
	 width="64px" height="64px" viewBox="0 0 64 64" style="enable-background:new 0 0 64 64;" xml:space="preserve">
  <polygon class="st0" points="7.4,44.3 32,19.7 32,44.3 "/>
  <polygon class="st0" points="31.6,44.3 56.2,19.7 56.2,44.3 "/>
  <path d="M56.9,17.6c-1-0.4-2.1-0.2-2.8,0.6L34.6,37.7V20c0-1-0.6-2-1.6-2.4c-1-0.4-2.1-0.2-2.8,0.6L6.2,42.1c-0.8,0.8-1,1.9-0.6,2.8
    c0.4,1,1.4,1.6,2.4,1.6h47.8c1.4,0,2.6-1.2,2.6-2.6V20C58.5,19,57.9,18,56.9,17.6L56.9,17.6z"/>
  <style type="text/css">
    path {
      fill: #333;
    }
    .st0 {
      fill:#FFFFFF;
      stroke:#FFFFFF;
      stroke-width:10;
      stroke-linecap:round;
      stroke-linejoin:round;
    }
    @media (prefers-color-scheme: dark) {
      path {
        fill: hsl(221deg 100% 12%);
      }
    }
  </style>
</svg>
